<svg width="111" height="51" viewBox="0 0 111 51" fill="none" xmlns="http://www.w3.org/2000/svg">
<g clip-path="url(#clip0_223_5)">
<mask id="mask0_223_5" style="mask-type:luminance" maskUnits="userSpaceOnUse" x="0" y="0" width="111" height="51">
<path d="M111 0H0V51H111V0Z" fill="white"/>
</mask>
<g mask="url(#mask0_223_5)">
<g filter="url(#filter0_dii_223_5)">
<path fill-rule="evenodd" clip-rule="evenodd" d="M61.1692 12.7903C61.1389 12.7591 61.1045 12.7273 61.0716 12.6981C61.0453 12.6695 61.0049 12.6368 60.9746 12.6133H73.4958C75.8982 12.6133 78.0953 13.2217 80.0603 14.4481C82.0317 15.6639 83.5794 17.3094 84.6949 19.3683C85.8112 21.4281 86.3666 23.6693 86.3666 26.0744C86.3666 27.8942 86.0018 29.6928 85.2832 31.4644C84.5873 33.2134 83.6112 34.7567 82.3543 36.0855C81.1537 37.3797 79.8472 38.3391 78.4282 38.9212L78.4138 38.9271C77.0115 39.4773 75.3979 39.7372 73.5968 39.7372H65.0698V34.8525C65.8401 34.9911 66.5971 35.1313 66.6204 35.1531C66.6341 35.1658 66.68 35.1955 66.7392 35.234C66.8831 35.3275 67.1062 35.4728 67.1447 35.5526C67.1987 35.6653 71.2425 34.9472 71.2425 34.9472L73.4566 34.1009L73.616 34.4296C73.616 34.4296 74.0012 34.1884 74.2447 34.0709C74.3512 34.054 74.4641 34.0328 74.5692 34.0116C74.6957 33.9946 74.8115 33.9644 74.9332 33.9328L75.0009 33.9153L74.9928 33.9071C75.8079 33.7518 76.5457 33.4549 77.2146 33.022C78.298 32.3133 79.1309 31.3839 79.7236 30.2195C80.3201 29.0481 80.6231 27.7617 80.6231 26.3434C80.6231 24.8459 80.326 23.4949 79.7454 22.2749L79.7395 22.2625C79.1893 21.0653 78.3838 20.1278 77.3138 19.4281L77.3031 19.4211C76.256 18.7176 75.012 18.3503 73.5295 18.3503H70.7126V32.7476C69.8783 32.5983 68.9858 32.4345 68.9607 32.411C68.9466 32.3982 68.9008 32.3684 68.8416 32.3297C68.6976 32.2362 68.4745 32.0912 68.4364 32.0115C68.3968 31.9293 66.2375 32.2886 65.0698 32.4894V18.3503L63.6249 16.3483C63.6175 16.3202 63.6042 16.2694 63.5868 16.2039C63.495 15.8556 63.2927 15.0873 63.3034 15.0627C63.3078 15.0535 63.3145 15.0274 63.3234 14.9933C63.3448 14.9112 63.3778 14.7839 63.4129 14.7431C63.4629 14.6854 62.2533 13.53 62.2533 13.53L61.3457 13.0533L61.4911 12.8846C61.4911 12.8846 61.2824 12.8342 61.1692 12.7903Z" fill="url(#paint0_linear_223_5)"/>
<path fill-rule="evenodd" clip-rule="evenodd" d="M61.1692 12.7903C61.1389 12.7591 61.1045 12.7273 61.0716 12.6981C61.0453 12.6695 61.0049 12.6368 60.9746 12.6133H73.4958C75.8982 12.6133 78.0953 13.2217 80.0603 14.4481C82.0317 15.6639 83.5794 17.3094 84.6949 19.3683C85.8112 21.4281 86.3666 23.6693 86.3666 26.0744C86.3666 27.8942 86.0018 29.6928 85.2832 31.4644C84.5873 33.2134 83.6112 34.7567 82.3543 36.0855C81.1537 37.3797 79.8472 38.3391 78.4282 38.9212L78.4138 38.9271C77.0115 39.4773 75.3979 39.7372 73.5968 39.7372H65.0698V34.8525C65.8401 34.9911 66.5971 35.1313 66.6204 35.1531C66.6341 35.1658 66.68 35.1955 66.7392 35.234C66.8831 35.3275 67.1062 35.4728 67.1447 35.5526C67.1987 35.6653 71.2425 34.9472 71.2425 34.9472L73.4566 34.1009L73.616 34.4296C73.616 34.4296 74.0012 34.1884 74.2447 34.0709C74.3512 34.054 74.4641 34.0328 74.5692 34.0116C74.6957 33.9946 74.8115 33.9644 74.9332 33.9328L75.0009 33.9153L74.9928 33.9071C75.8079 33.7518 76.5457 33.4549 77.2146 33.022C78.298 32.3133 79.1309 31.3839 79.7236 30.2195C80.3201 29.0481 80.6231 27.7617 80.6231 26.3434C80.6231 24.8459 80.326 23.4949 79.7454 22.2749L79.7395 22.2625C79.1893 21.0653 78.3838 20.1278 77.3138 19.4281L77.3031 19.4211C76.256 18.7176 75.012 18.3503 73.5295 18.3503H70.7126V32.7476C69.8783 32.5983 68.9858 32.4345 68.9607 32.411C68.9466 32.3982 68.9008 32.3684 68.8416 32.3297C68.6976 32.2362 68.4745 32.0912 68.4364 32.0115C68.3968 31.9293 66.2375 32.2886 65.0698 32.4894V18.3503L63.6249 16.3483C63.6175 16.3202 63.6042 16.2694 63.5868 16.2039C63.495 15.8556 63.2927 15.0873 63.3034 15.0627C63.3078 15.0535 63.3145 15.0274 63.3234 14.9933C63.3448 14.9112 63.3778 14.7839 63.4129 14.7431C63.4629 14.6854 62.2533 13.53 62.2533 13.53L61.3457 13.0533L61.4911 12.8846C61.4911 12.8846 61.2824 12.8342 61.1692 12.7903Z" fill="url(#paint1_linear_223_5)"/>
<path fill-rule="evenodd" clip-rule="evenodd" d="M61.1692 12.7903C61.1389 12.7591 61.1045 12.7273 61.0716 12.6981C61.0453 12.6695 61.0049 12.6368 60.9746 12.6133H73.4958C75.8982 12.6133 78.0953 13.2217 80.0603 14.4481C82.0317 15.6639 83.5794 17.3094 84.6949 19.3683C85.8112 21.4281 86.3666 23.6693 86.3666 26.0744C86.3666 27.8942 86.0018 29.6928 85.2832 31.4644C84.5873 33.2134 83.6112 34.7567 82.3543 36.0855C81.1537 37.3797 79.8472 38.3391 78.4282 38.9212L78.4138 38.9271C77.0115 39.4773 75.3979 39.7372 73.5968 39.7372H65.0698V34.8525C65.8401 34.9911 66.5971 35.1313 66.6204 35.1531C66.6341 35.1658 66.68 35.1955 66.7392 35.234C66.8831 35.3275 67.1062 35.4728 67.1447 35.5526C67.1987 35.6653 71.2425 34.9472 71.2425 34.9472L73.4566 34.1009L73.616 34.4296C73.616 34.4296 74.0012 34.1884 74.2447 34.0709C74.3512 34.054 74.4641 34.0328 74.5692 34.0116C74.6957 33.9946 74.8115 33.9644 74.9332 33.9328L75.0009 33.9153L74.9928 33.9071C75.8079 33.7518 76.5457 33.4549 77.2146 33.022C78.298 32.3133 79.1309 31.3839 79.7236 30.2195C80.3201 29.0481 80.6231 27.7617 80.6231 26.3434C80.6231 24.8459 80.326 23.4949 79.7454 22.2749L79.7395 22.2625C79.1893 21.0653 78.3838 20.1278 77.3138 19.4281L77.3031 19.4211C76.256 18.7176 75.012 18.3503 73.5295 18.3503H70.7126V32.7476C69.8783 32.5983 68.9858 32.4345 68.9607 32.411C68.9466 32.3982 68.9008 32.3684 68.8416 32.3297C68.6976 32.2362 68.4745 32.0912 68.4364 32.0115C68.3968 31.9293 66.2375 32.2886 65.0698 32.4894V18.3503L63.6249 16.3483C63.6175 16.3202 63.6042 16.2694 63.5868 16.2039C63.495 15.8556 63.2927 15.0873 63.3034 15.0627C63.3078 15.0535 63.3145 15.0274 63.3234 14.9933C63.3448 14.9112 63.3778 14.7839 63.4129 14.7431C63.4629 14.6854 62.2533 13.53 62.2533 13.53L61.3457 13.0533L61.4911 12.8846C61.4911 12.8846 61.2824 12.8342 61.1692 12.7903Z" fill="url(#paint2_linear_223_5)"/>
<path fill-rule="evenodd" clip-rule="evenodd" d="M61.1692 12.7903C61.1389 12.7591 61.1045 12.7273 61.0716 12.6981C61.0453 12.6695 61.0049 12.6368 60.9746 12.6133H73.4958C75.8982 12.6133 78.0953 13.2217 80.0603 14.4481C82.0317 15.6639 83.5794 17.3094 84.6949 19.3683C85.8112 21.4281 86.3666 23.6693 86.3666 26.0744C86.3666 27.8942 86.0018 29.6928 85.2832 31.4644C84.5873 33.2134 83.6112 34.7567 82.3543 36.0855C81.1537 37.3797 79.8472 38.3391 78.4282 38.9212L78.4138 38.9271C77.0115 39.4773 75.3979 39.7372 73.5968 39.7372H65.0698V34.8525C65.8401 34.9911 66.5971 35.1313 66.6204 35.1531C66.6341 35.1658 66.68 35.1955 66.7392 35.234C66.8831 35.3275 67.1062 35.4728 67.1447 35.5526C67.1987 35.6653 71.2425 34.9472 71.2425 34.9472L73.4566 34.1009L73.616 34.4296C73.616 34.4296 74.0012 34.1884 74.2447 34.0709C74.3512 34.054 74.4641 34.0328 74.5692 34.0116C74.6957 33.9946 74.8115 33.9644 74.9332 33.9328L75.0009 33.9153L74.9928 33.9071C75.8079 33.7518 76.5457 33.4549 77.2146 33.022C78.298 32.3133 79.1309 31.3839 79.7236 30.2195C80.3201 29.0481 80.6231 27.7617 80.6231 26.3434C80.6231 24.8459 80.326 23.4949 79.7454 22.2749L79.7395 22.2625C79.1893 21.0653 78.3838 20.1278 77.3138 19.4281L77.3031 19.4211C76.256 18.7176 75.012 18.3503 73.5295 18.3503H70.7126V32.7476C69.8783 32.5983 68.9858 32.4345 68.9607 32.411C68.9466 32.3982 68.9008 32.3684 68.8416 32.3297C68.6976 32.2362 68.4745 32.0912 68.4364 32.0115C68.3968 31.9293 66.2375 32.2886 65.0698 32.4894V18.3503L63.6249 16.3483C63.6175 16.3202 63.6042 16.2694 63.5868 16.2039C63.495 15.8556 63.2927 15.0873 63.3034 15.0627C63.3078 15.0535 63.3145 15.0274 63.3234 14.9933C63.3448 14.9112 63.3778 14.7839 63.4129 14.7431C63.4629 14.6854 62.2533 13.53 62.2533 13.53L61.3457 13.0533L61.4911 12.8846C61.4911 12.8846 61.2824 12.8342 61.1692 12.7903Z" fill="url(#paint3_linear_223_5)"/>
</g>
<g filter="url(#filter1_dii_223_5)">
<path fill-rule="evenodd" clip-rule="evenodd" d="M62.1555 34.7963C62.0571 34.8502 61.9883 34.8896 61.9883 34.8896L61.8422 34.5547L59.5955 35.3116C59.5955 35.3116 55.5263 35.8671 55.4767 35.7524C55.4419 35.6711 55.2243 35.517 55.0845 35.4178C55.0268 35.377 54.9824 35.3454 54.969 35.3321C54.9335 35.2965 53.0854 34.8926 52.2318 34.706C51.9876 34.6527 51.8244 34.6171 51.8092 34.613C51.7745 34.604 51.632 34.5416 51.4892 34.4792C51.3467 34.4168 51.2043 34.3543 51.1695 34.3454C51.1458 34.3392 50.9412 34.3101 50.6819 34.2733C50.1853 34.2028 49.4875 34.1037 49.4653 34.0811C49.4313 34.0468 48.9939 33.5865 48.9939 33.5865L48.995 33.5862L48.9969 33.5858L49.0017 33.5847C49.0476 33.5743 49.2747 33.5225 49.4294 33.5081C49.5356 33.4909 49.6492 33.4742 49.7561 33.4618C49.8875 33.4046 50.0603 33.3144 50.1931 33.2422L54.1998 0.929688L49.7014 15.4173L49.9637 16.1907C49.9637 16.1907 50.115 20.3584 49.916 20.3706C49.7746 20.3792 49.4782 20.5434 49.2877 20.6491C49.2092 20.6927 49.1486 20.7263 49.1238 20.735C49.0583 20.7584 48.0404 22.443 47.5701 23.2208C47.4355 23.4433 47.3459 23.5918 47.3367 23.6057C47.3167 23.6346 47.2027 23.74 47.0825 23.8509L42.1504 39.7353H52.153H62.1555V34.7963Z" fill="url(#paint4_linear_223_5)"/>
<path fill-rule="evenodd" clip-rule="evenodd" d="M62.1555 34.7963C62.0571 34.8502 61.9883 34.8896 61.9883 34.8896L61.8422 34.5547L59.5955 35.3116C59.5955 35.3116 55.5263 35.8671 55.4767 35.7524C55.4419 35.6711 55.2243 35.517 55.0845 35.4178C55.0268 35.377 54.9824 35.3454 54.969 35.3321C54.9335 35.2965 53.0854 34.8926 52.2318 34.706C51.9876 34.6527 51.8244 34.6171 51.8092 34.613C51.7745 34.604 51.632 34.5416 51.4892 34.4792C51.3467 34.4168 51.2043 34.3543 51.1695 34.3454C51.1458 34.3392 50.9412 34.3101 50.6819 34.2733C50.1853 34.2028 49.4875 34.1037 49.4653 34.0811C49.4313 34.0468 48.9939 33.5865 48.9939 33.5865L48.995 33.5862L48.9969 33.5858L49.0017 33.5847C49.0476 33.5743 49.2747 33.5225 49.4294 33.5081C49.5356 33.4909 49.6492 33.4742 49.7561 33.4618C49.8875 33.4046 50.0603 33.3144 50.1931 33.2422L54.1998 0.929688L49.7014 15.4173L49.9637 16.1907C49.9637 16.1907 50.115 20.3584 49.916 20.3706C49.7746 20.3792 49.4782 20.5434 49.2877 20.6491C49.2092 20.6927 49.1486 20.7263 49.1238 20.735C49.0583 20.7584 48.0404 22.443 47.5701 23.2208C47.4355 23.4433 47.3459 23.5918 47.3367 23.6057C47.3167 23.6346 47.2027 23.74 47.0825 23.8509L42.1504 39.7353H52.153H62.1555V34.7963Z" fill="url(#paint5_linear_223_5)"/>
<path fill-rule="evenodd" clip-rule="evenodd" d="M62.1555 34.7963C62.0571 34.8502 61.9883 34.8896 61.9883 34.8896L61.8422 34.5547L59.5955 35.3116C59.5955 35.3116 55.5263 35.8671 55.4767 35.7524C55.4419 35.6711 55.2243 35.517 55.0845 35.4178C55.0268 35.377 54.9824 35.3454 54.969 35.3321C54.9335 35.2965 53.0854 34.8926 52.2318 34.706C51.9876 34.6527 51.8244 34.6171 51.8092 34.613C51.7745 34.604 51.632 34.5416 51.4892 34.4792C51.3467 34.4168 51.2043 34.3543 51.1695 34.3454C51.1458 34.3392 50.9412 34.3101 50.6819 34.2733C50.1853 34.2028 49.4875 34.1037 49.4653 34.0811C49.4313 34.0468 48.9939 33.5865 48.9939 33.5865L48.995 33.5862L48.9969 33.5858L49.0017 33.5847C49.0476 33.5743 49.2747 33.5225 49.4294 33.5081C49.5356 33.4909 49.6492 33.4742 49.7561 33.4618C49.8875 33.4046 50.0603 33.3144 50.1931 33.2422L54.1998 0.929688L49.7014 15.4173L49.9637 16.1907C49.9637 16.1907 50.115 20.3584 49.916 20.3706C49.7746 20.3792 49.4782 20.5434 49.2877 20.6491C49.2092 20.6927 49.1486 20.7263 49.1238 20.735C49.0583 20.7584 48.0404 22.443 47.5701 23.2208C47.4355 23.4433 47.3459 23.5918 47.3367 23.6057C47.3167 23.6346 47.2027 23.74 47.0825 23.8509L42.1504 39.7353H52.153H62.1555V34.7963Z" fill="url(#paint6_linear_223_5)"/>
<path fill-rule="evenodd" clip-rule="evenodd" d="M62.1555 34.7963C62.0571 34.8502 61.9883 34.8896 61.9883 34.8896L61.8422 34.5547L59.5955 35.3116C59.5955 35.3116 55.5263 35.8671 55.4767 35.7524C55.4419 35.6711 55.2243 35.517 55.0845 35.4178C55.0268 35.377 54.9824 35.3454 54.969 35.3321C54.9335 35.2965 53.0854 34.8926 52.2318 34.706C51.9876 34.6527 51.8244 34.6171 51.8092 34.613C51.7745 34.604 51.632 34.5416 51.4892 34.4792C51.3467 34.4168 51.2043 34.3543 51.1695 34.3454C51.1458 34.3392 50.9412 34.3101 50.6819 34.2733C50.1853 34.2028 49.4875 34.1037 49.4653 34.0811C49.4313 34.0468 48.9939 33.5865 48.9939 33.5865L48.995 33.5862L48.9969 33.5858L49.0017 33.5847C49.0476 33.5743 49.2747 33.5225 49.4294 33.5081C49.5356 33.4909 49.6492 33.4742 49.7561 33.4618C49.8875 33.4046 50.0603 33.3144 50.1931 33.2422L54.1998 0.929688L49.7014 15.4173L49.9637 16.1907C49.9637 16.1907 50.115 20.3584 49.916 20.3706C49.7746 20.3792 49.4782 20.5434 49.2877 20.6491C49.2092 20.6927 49.1486 20.7263 49.1238 20.735C49.0583 20.7584 48.0404 22.443 47.5701 23.2208C47.4355 23.4433 47.3459 23.5918 47.3367 23.6057C47.3167 23.6346 47.2027 23.74 47.0825 23.8509L42.1504 39.7353H52.153H62.1555V34.7963Z" fill="url(#paint7_linear_223_5)"/>
</g>
<g filter="url(#filter2_dii_223_5)">
<path fill-rule="evenodd" clip-rule="evenodd" d="M38.4028 39.7356L38.193 39.0113C38.193 39.0113 38.1368 34.8616 38.3166 34.8456C38.4439 34.8344 38.7133 34.6655 38.8868 34.5565C38.9586 34.5115 39.0141 34.4767 39.0366 34.4675C39.0962 34.4428 40.0549 32.7266 40.4896 31.9484C40.554 31.8335 40.6069 31.7391 40.6435 31.6735L47.8678 0L36.6318 28.1819C36.4632 29.1397 36.2275 30.5017 36.2533 30.5493C36.2647 30.5705 36.2857 30.6323 36.3127 30.7122C36.3784 30.9063 36.4804 31.2078 36.5719 31.2969C36.6881 31.4099 34.5426 33.9916 34.1081 34.5119L32.0254 39.7356H38.4028Z" fill="url(#paint8_linear_223_5)"/>
<path fill-rule="evenodd" clip-rule="evenodd" d="M38.4028 39.7356L38.193 39.0113C38.193 39.0113 38.1368 34.8616 38.3166 34.8456C38.4439 34.8344 38.7133 34.6655 38.8868 34.5565C38.9586 34.5115 39.0141 34.4767 39.0366 34.4675C39.0962 34.4428 40.0549 32.7266 40.4896 31.9484C40.554 31.8335 40.6069 31.7391 40.6435 31.6735L47.8678 0L36.6318 28.1819C36.4632 29.1397 36.2275 30.5017 36.2533 30.5493C36.2647 30.5705 36.2857 30.6323 36.3127 30.7122C36.3784 30.9063 36.4804 31.2078 36.5719 31.2969C36.6881 31.4099 34.5426 33.9916 34.1081 34.5119L32.0254 39.7356H38.4028Z" fill="url(#paint9_linear_223_5)"/>
<path fill-rule="evenodd" clip-rule="evenodd" d="M38.4028 39.7356L38.193 39.0113C38.193 39.0113 38.1368 34.8616 38.3166 34.8456C38.4439 34.8344 38.7133 34.6655 38.8868 34.5565C38.9586 34.5115 39.0141 34.4767 39.0366 34.4675C39.0962 34.4428 40.0549 32.7266 40.4896 31.9484C40.554 31.8335 40.6069 31.7391 40.6435 31.6735L47.8678 0L36.6318 28.1819C36.4632 29.1397 36.2275 30.5017 36.2533 30.5493C36.2647 30.5705 36.2857 30.6323 36.3127 30.7122C36.3784 30.9063 36.4804 31.2078 36.5719 31.2969C36.6881 31.4099 34.5426 33.9916 34.1081 34.5119L32.0254 39.7356H38.4028Z" fill="url(#paint10_linear_223_5)"/>
<path fill-rule="evenodd" clip-rule="evenodd" d="M38.4028 39.7356L38.193 39.0113C38.193 39.0113 38.1368 34.8616 38.3166 34.8456C38.4439 34.8344 38.7133 34.6655 38.8868 34.5565C38.9586 34.5115 39.0141 34.4767 39.0366 34.4675C39.0962 34.4428 40.0549 32.7266 40.4896 31.9484C40.554 31.8335 40.6069 31.7391 40.6435 31.6735L47.8678 0L36.6318 28.1819C36.4632 29.1397 36.2275 30.5017 36.2533 30.5493C36.2647 30.5705 36.2857 30.6323 36.3127 30.7122C36.3784 30.9063 36.4804 31.2078 36.5719 31.2969C36.6881 31.4099 34.5426 33.9916 34.1081 34.5119L32.0254 39.7356H38.4028Z" fill="url(#paint11_linear_223_5)"/>
</g>
<g filter="url(#filter3_dii_223_5)">
<path fill-rule="evenodd" clip-rule="evenodd" d="M28.2693 39.7359H25.2114C23.382 37.8777 22.3094 36.7468 21.8216 35.6421C21.2673 34.3953 21.2531 33.611 21.2531 33.611C21.2531 33.611 21.6625 33.7086 21.7963 33.6952C22.2114 33.7003 22.2555 33.6682 21.7648 32.8911C21.5474 32.5404 21.3886 32.3832 21.273 32.2688C21.1311 32.1283 21.0546 32.0525 21.0147 31.7625C20.9865 31.5427 21.0062 31.3783 21.0261 31.2118C21.0538 30.9806 21.0819 30.7451 20.9834 30.3511C20.9037 30.0275 20.6232 29.5566 20.3284 29.0615C20.0008 28.5114 19.6556 27.9316 19.5481 27.4908C19.4238 26.9753 19.295 26.3317 19.2148 25.9173C19.1721 25.6946 18.9357 25.5645 18.7237 25.6472C18.3571 25.7902 17.8751 25.9987 17.8486 26.1162C17.8044 26.3124 17.764 27.0246 17.764 27.0246L17.3798 26.282C17.3798 26.282 17.1175 26.4776 17.0314 26.8598C17.0119 26.9457 16.9816 27.1834 16.9377 27.5269C16.7867 28.7094 16.4756 31.1467 15.8995 32.9708C15.7341 33.4906 15.565 33.9806 15.4028 34.4509C14.8304 36.1097 14.3433 37.5218 14.4042 39.1194C14.4118 39.3186 14.4326 39.5245 14.4646 39.7359H9.28589L0.0761719 12.612L5.98652 20.6986L11.8835 29.1996L14.7364 24.1977L18.1749 15.5206L19.9736 20.2322L25.4599 29.1727L33.9375 14.1176L41.1177 1.29297L34.2089 21.9644C34.1107 22.1954 34.0346 22.3741 34.0213 22.395C34.0015 22.4266 33.8812 22.5493 33.7612 22.6716C33.642 22.7932 33.523 22.9145 33.5031 22.9459C33.4944 22.9596 33.4138 23.1039 33.2924 23.3213C32.8576 24.0995 31.8989 25.8156 31.8392 25.8402C31.8168 25.8495 31.7613 25.8843 31.6895 25.9293C31.5157 26.0383 31.2464 26.2072 31.1191 26.2185C30.9394 26.2344 30.9957 30.3839 30.9957 30.3839L31.181 31.0243L28.2693 39.7359Z" fill="url(#paint12_linear_223_5)"/>
<path fill-rule="evenodd" clip-rule="evenodd" d="M28.2693 39.7359H25.2114C23.382 37.8777 22.3094 36.7468 21.8216 35.6421C21.2673 34.3953 21.2531 33.611 21.2531 33.611C21.2531 33.611 21.6625 33.7086 21.7963 33.6952C22.2114 33.7003 22.2555 33.6682 21.7648 32.8911C21.5474 32.5404 21.3886 32.3832 21.273 32.2688C21.1311 32.1283 21.0546 32.0525 21.0147 31.7625C20.9865 31.5427 21.0062 31.3783 21.0261 31.2118C21.0538 30.9806 21.0819 30.7451 20.9834 30.3511C20.9037 30.0275 20.6232 29.5566 20.3284 29.0615C20.0008 28.5114 19.6556 27.9316 19.5481 27.4908C19.4238 26.9753 19.295 26.3317 19.2148 25.9173C19.1721 25.6946 18.9357 25.5645 18.7237 25.6472C18.3571 25.7902 17.8751 25.9987 17.8486 26.1162C17.8044 26.3124 17.764 27.0246 17.764 27.0246L17.3798 26.282C17.3798 26.282 17.1175 26.4776 17.0314 26.8598C17.0119 26.9457 16.9816 27.1834 16.9377 27.5269C16.7867 28.7094 16.4756 31.1467 15.8995 32.9708C15.7341 33.4906 15.565 33.9806 15.4028 34.4509C14.8304 36.1097 14.3433 37.5218 14.4042 39.1194C14.4118 39.3186 14.4326 39.5245 14.4646 39.7359H9.28589L0.0761719 12.612L5.98652 20.6986L11.8835 29.1996L14.7364 24.1977L18.1749 15.5206L19.9736 20.2322L25.4599 29.1727L33.9375 14.1176L41.1177 1.29297L34.2089 21.9644C34.1107 22.1954 34.0346 22.3741 34.0213 22.395C34.0015 22.4266 33.8812 22.5493 33.7612 22.6716C33.642 22.7932 33.523 22.9145 33.5031 22.9459C33.4944 22.9596 33.4138 23.1039 33.2924 23.3213C32.8576 24.0995 31.8989 25.8156 31.8392 25.8402C31.8168 25.8495 31.7613 25.8843 31.6895 25.9293C31.5157 26.0383 31.2464 26.2072 31.1191 26.2185C30.9394 26.2344 30.9957 30.3839 30.9957 30.3839L31.181 31.0243L28.2693 39.7359Z" fill="url(#paint13_linear_223_5)"/>
<path fill-rule="evenodd" clip-rule="evenodd" d="M28.2693 39.7359H25.2114C23.382 37.8777 22.3094 36.7468 21.8216 35.6421C21.2673 34.3953 21.2531 33.611 21.2531 33.611C21.2531 33.611 21.6625 33.7086 21.7963 33.6952C22.2114 33.7003 22.2555 33.6682 21.7648 32.8911C21.5474 32.5404 21.3886 32.3832 21.273 32.2688C21.1311 32.1283 21.0546 32.0525 21.0147 31.7625C20.9865 31.5427 21.0062 31.3783 21.0261 31.2118C21.0538 30.9806 21.0819 30.7451 20.9834 30.3511C20.9037 30.0275 20.6232 29.5566 20.3284 29.0615C20.0008 28.5114 19.6556 27.9316 19.5481 27.4908C19.4238 26.9753 19.295 26.3317 19.2148 25.9173C19.1721 25.6946 18.9357 25.5645 18.7237 25.6472C18.3571 25.7902 17.8751 25.9987 17.8486 26.1162C17.8044 26.3124 17.764 27.0246 17.764 27.0246L17.3798 26.282C17.3798 26.282 17.1175 26.4776 17.0314 26.8598C17.0119 26.9457 16.9816 27.1834 16.9377 27.5269C16.7867 28.7094 16.4756 31.1467 15.8995 32.9708C15.7341 33.4906 15.565 33.9806 15.4028 34.4509C14.8304 36.1097 14.3433 37.5218 14.4042 39.1194C14.4118 39.3186 14.4326 39.5245 14.4646 39.7359H9.28589L0.0761719 12.612L5.98652 20.6986L11.8835 29.1996L14.7364 24.1977L18.1749 15.5206L19.9736 20.2322L25.4599 29.1727L33.9375 14.1176L41.1177 1.29297L34.2089 21.9644C34.1107 22.1954 34.0346 22.3741 34.0213 22.395C34.0015 22.4266 33.8812 22.5493 33.7612 22.6716C33.642 22.7932 33.523 22.9145 33.5031 22.9459C33.4944 22.9596 33.4138 23.1039 33.2924 23.3213C32.8576 24.0995 31.8989 25.8156 31.8392 25.8402C31.8168 25.8495 31.7613 25.8843 31.6895 25.9293C31.5157 26.0383 31.2464 26.2072 31.1191 26.2185C30.9394 26.2344 30.9957 30.3839 30.9957 30.3839L31.181 31.0243L28.2693 39.7359Z" fill="url(#paint14_linear_223_5)"/>
<path fill-rule="evenodd" clip-rule="evenodd" d="M28.2693 39.7359H25.2114C23.382 37.8777 22.3094 36.7468 21.8216 35.6421C21.2673 34.3953 21.2531 33.611 21.2531 33.611C21.2531 33.611 21.6625 33.7086 21.7963 33.6952C22.2114 33.7003 22.2555 33.6682 21.7648 32.8911C21.5474 32.5404 21.3886 32.3832 21.273 32.2688C21.1311 32.1283 21.0546 32.0525 21.0147 31.7625C20.9865 31.5427 21.0062 31.3783 21.0261 31.2118C21.0538 30.9806 21.0819 30.7451 20.9834 30.3511C20.9037 30.0275 20.6232 29.5566 20.3284 29.0615C20.0008 28.5114 19.6556 27.9316 19.5481 27.4908C19.4238 26.9753 19.295 26.3317 19.2148 25.9173C19.1721 25.6946 18.9357 25.5645 18.7237 25.6472C18.3571 25.7902 17.8751 25.9987 17.8486 26.1162C17.8044 26.3124 17.764 27.0246 17.764 27.0246L17.3798 26.282C17.3798 26.282 17.1175 26.4776 17.0314 26.8598C17.0119 26.9457 16.9816 27.1834 16.9377 27.5269C16.7867 28.7094 16.4756 31.1467 15.8995 32.9708C15.7341 33.4906 15.565 33.9806 15.4028 34.4509C14.8304 36.1097 14.3433 37.5218 14.4042 39.1194C14.4118 39.3186 14.4326 39.5245 14.4646 39.7359H9.28589L0.0761719 12.612L5.98652 20.6986L11.8835 29.1996L14.7364 24.1977L18.1749 15.5206L19.9736 20.2322L25.4599 29.1727L33.9375 14.1176L41.1177 1.29297L34.2089 21.9644C34.1107 22.1954 34.0346 22.3741 34.0213 22.395C34.0015 22.4266 33.8812 22.5493 33.7612 22.6716C33.642 22.7932 33.523 22.9145 33.5031 22.9459C33.4944 22.9596 33.4138 23.1039 33.2924 23.3213C32.8576 24.0995 31.8989 25.8156 31.8392 25.8402C31.8168 25.8495 31.7613 25.8843 31.6895 25.9293C31.5157 26.0383 31.2464 26.2072 31.1191 26.2185C30.9394 26.2344 30.9957 30.3839 30.9957 30.3839L31.181 31.0243L28.2693 39.7359Z" fill="url(#paint15_linear_223_5)"/>
</g>
<g filter="url(#filter4_di_223_5)">
<path d="M80.3824 49.9773C80.3824 49.9773 88.3485 40.8819 98.1646 29.7193C98.1646 29.7193 92.6431 29.7193 94.4476 29.7193C95.3493 28.2583 110.96 10.4609 110.96 10.4609H74.8535C74.8535 10.4609 83.3772 12.0769 86.0024 17.7956H96.0393L80.3824 49.9773C83.2825 46.6682 84.9712 44.7427 84.9712 44.7427L83.1415 46.8289L80.3824 49.9773Z" fill="url(#paint16_linear_223_5)"/>
</g>
</g>
</g>
<defs>
<filter id="filter0_dii_223_5" x="54.4521" y="10.9827" width="38.4366" height="41.8007" filterUnits="userSpaceOnUse" color-interpolation-filters="sRGB">
<feFlood flood-opacity="0" result="BackgroundImageFix"/>
<feColorMatrix in="SourceAlpha" type="matrix" values="0 0 0 0 0 0 0 0 0 0 0 0 0 0 0 0 0 0 127 0" result="hardAlpha"/>
<feOffset dy="6.52252"/>
<feGaussianBlur stdDeviation="3.26126"/>
<feComposite in2="hardAlpha" operator="out"/>
<feColorMatrix type="matrix" values="0 0 0 0 0 0 0 0 0 0 0 0 0 0 0 0 0 0 0.5 0"/>
<feBlend mode="normal" in2="BackgroundImageFix" result="effect1_dropShadow_223_5"/>
<feBlend mode="normal" in="SourceGraphic" in2="effect1_dropShadow_223_5" result="shape"/>
<feColorMatrix in="SourceAlpha" type="matrix" values="0 0 0 0 0 0 0 0 0 0 0 0 0 0 0 0 0 0 127 0" result="hardAlpha"/>
<feOffset dx="1.63063" dy="-1.63063"/>
<feGaussianBlur stdDeviation="8.15315"/>
<feComposite in2="hardAlpha" operator="arithmetic" k2="-1" k3="1"/>
<feColorMatrix type="matrix" values="0 0 0 0 0.0823529 0 0 0 0 0.682353 0 0 0 0 0.992157 0 0 0 0.6 0"/>
<feBlend mode="normal" in2="shape" result="effect2_innerShadow_223_5"/>
<feColorMatrix in="SourceAlpha" type="matrix" values="0 0 0 0 0 0 0 0 0 0 0 0 0 0 0 0 0 0 127 0" result="hardAlpha"/>
<feOffset dy="-1.63063"/>
<feGaussianBlur stdDeviation="3.26126"/>
<feComposite in2="hardAlpha" operator="arithmetic" k2="-1" k3="1"/>
<feColorMatrix type="matrix" values="0 0 0 0 0.0823529 0 0 0 0 0.682353 0 0 0 0 0.992157 0 0 0 0.8 0"/>
<feBlend mode="normal" in2="effect2_innerShadow_223_5" result="effect3_innerShadow_223_5"/>
</filter>
<filter id="filter1_dii_223_5" x="35.6279" y="-0.700943" width="33.0499" height="53.4804" filterUnits="userSpaceOnUse" color-interpolation-filters="sRGB">
<feFlood flood-opacity="0" result="BackgroundImageFix"/>
<feColorMatrix in="SourceAlpha" type="matrix" values="0 0 0 0 0 0 0 0 0 0 0 0 0 0 0 0 0 0 127 0" result="hardAlpha"/>
<feOffset dy="6.52252"/>
<feGaussianBlur stdDeviation="3.26126"/>
<feComposite in2="hardAlpha" operator="out"/>
<feColorMatrix type="matrix" values="0 0 0 0 0 0 0 0 0 0 0 0 0 0 0 0 0 0 0.5 0"/>
<feBlend mode="normal" in2="BackgroundImageFix" result="effect1_dropShadow_223_5"/>
<feBlend mode="normal" in="SourceGraphic" in2="effect1_dropShadow_223_5" result="shape"/>
<feColorMatrix in="SourceAlpha" type="matrix" values="0 0 0 0 0 0 0 0 0 0 0 0 0 0 0 0 0 0 127 0" result="hardAlpha"/>
<feOffset dx="1.63063" dy="-1.63063"/>
<feGaussianBlur stdDeviation="8.15315"/>
<feComposite in2="hardAlpha" operator="arithmetic" k2="-1" k3="1"/>
<feColorMatrix type="matrix" values="0 0 0 0 0.0823529 0 0 0 0 0.682353 0 0 0 0 0.992157 0 0 0 0.6 0"/>
<feBlend mode="normal" in2="shape" result="effect2_innerShadow_223_5"/>
<feColorMatrix in="SourceAlpha" type="matrix" values="0 0 0 0 0 0 0 0 0 0 0 0 0 0 0 0 0 0 127 0" result="hardAlpha"/>
<feOffset dy="-1.63063"/>
<feGaussianBlur stdDeviation="3.26126"/>
<feComposite in2="hardAlpha" operator="arithmetic" k2="-1" k3="1"/>
<feColorMatrix type="matrix" values="0 0 0 0 0.0823529 0 0 0 0 0.682353 0 0 0 0 0.992157 0 0 0 0.8 0"/>
<feBlend mode="normal" in2="effect2_innerShadow_223_5" result="effect3_innerShadow_223_5"/>
</filter>
<filter id="filter2_dii_223_5" x="25.5029" y="-1.63063" width="28.8878" height="54.41" filterUnits="userSpaceOnUse" color-interpolation-filters="sRGB">
<feFlood flood-opacity="0" result="BackgroundImageFix"/>
<feColorMatrix in="SourceAlpha" type="matrix" values="0 0 0 0 0 0 0 0 0 0 0 0 0 0 0 0 0 0 127 0" result="hardAlpha"/>
<feOffset dy="6.52252"/>
<feGaussianBlur stdDeviation="3.26126"/>
<feComposite in2="hardAlpha" operator="out"/>
<feColorMatrix type="matrix" values="0 0 0 0 0 0 0 0 0 0 0 0 0 0 0 0 0 0 0.5 0"/>
<feBlend mode="normal" in2="BackgroundImageFix" result="effect1_dropShadow_223_5"/>
<feBlend mode="normal" in="SourceGraphic" in2="effect1_dropShadow_223_5" result="shape"/>
<feColorMatrix in="SourceAlpha" type="matrix" values="0 0 0 0 0 0 0 0 0 0 0 0 0 0 0 0 0 0 127 0" result="hardAlpha"/>
<feOffset dx="1.63063" dy="-1.63063"/>
<feGaussianBlur stdDeviation="8.15315"/>
<feComposite in2="hardAlpha" operator="arithmetic" k2="-1" k3="1"/>
<feColorMatrix type="matrix" values="0 0 0 0 0.0823529 0 0 0 0 0.682353 0 0 0 0 0.992157 0 0 0 0.6 0"/>
<feBlend mode="normal" in2="shape" result="effect2_innerShadow_223_5"/>
<feColorMatrix in="SourceAlpha" type="matrix" values="0 0 0 0 0 0 0 0 0 0 0 0 0 0 0 0 0 0 127 0" result="hardAlpha"/>
<feOffset dy="-1.63063"/>
<feGaussianBlur stdDeviation="3.26126"/>
<feComposite in2="hardAlpha" operator="arithmetic" k2="-1" k3="1"/>
<feColorMatrix type="matrix" values="0 0 0 0 0.0823529 0 0 0 0 0.682353 0 0 0 0 0.992157 0 0 0 0.8 0"/>
<feBlend mode="normal" in2="effect2_innerShadow_223_5" result="effect3_innerShadow_223_5"/>
</filter>
<filter id="filter3_dii_223_5" x="-6.44635" y="-0.337661" width="54.0861" height="53.1171" filterUnits="userSpaceOnUse" color-interpolation-filters="sRGB">
<feFlood flood-opacity="0" result="BackgroundImageFix"/>
<feColorMatrix in="SourceAlpha" type="matrix" values="0 0 0 0 0 0 0 0 0 0 0 0 0 0 0 0 0 0 127 0" result="hardAlpha"/>
<feOffset dy="6.52252"/>
<feGaussianBlur stdDeviation="3.26126"/>
<feComposite in2="hardAlpha" operator="out"/>
<feColorMatrix type="matrix" values="0 0 0 0 0 0 0 0 0 0 0 0 0 0 0 0 0 0 0.5 0"/>
<feBlend mode="normal" in2="BackgroundImageFix" result="effect1_dropShadow_223_5"/>
<feBlend mode="normal" in="SourceGraphic" in2="effect1_dropShadow_223_5" result="shape"/>
<feColorMatrix in="SourceAlpha" type="matrix" values="0 0 0 0 0 0 0 0 0 0 0 0 0 0 0 0 0 0 127 0" result="hardAlpha"/>
<feOffset dx="1.63063" dy="-1.63063"/>
<feGaussianBlur stdDeviation="8.15315"/>
<feComposite in2="hardAlpha" operator="arithmetic" k2="-1" k3="1"/>
<feColorMatrix type="matrix" values="0 0 0 0 0.0823529 0 0 0 0 0.682353 0 0 0 0 0.992157 0 0 0 0.6 0"/>
<feBlend mode="normal" in2="shape" result="effect2_innerShadow_223_5"/>
<feColorMatrix in="SourceAlpha" type="matrix" values="0 0 0 0 0 0 0 0 0 0 0 0 0 0 0 0 0 0 127 0" result="hardAlpha"/>
<feOffset dy="-1.63063"/>
<feGaussianBlur stdDeviation="3.26126"/>
<feComposite in2="hardAlpha" operator="arithmetic" k2="-1" k3="1"/>
<feColorMatrix type="matrix" values="0 0 0 0 0.0823529 0 0 0 0 0.682353 0 0 0 0 0.992157 0 0 0 0.8 0"/>
<feBlend mode="normal" in2="effect2_innerShadow_223_5" result="effect3_innerShadow_223_5"/>
</filter>
<filter id="filter4_di_223_5" x="68.331" y="3.93842" width="49.1515" height="52.5607" filterUnits="userSpaceOnUse" color-interpolation-filters="sRGB">
<feFlood flood-opacity="0" result="BackgroundImageFix"/>
<feColorMatrix in="SourceAlpha" type="matrix" values="0 0 0 0 0 0 0 0 0 0 0 0 0 0 0 0 0 0 127 0" result="hardAlpha"/>
<feOffset/>
<feGaussianBlur stdDeviation="3.26126"/>
<feComposite in2="hardAlpha" operator="out"/>
<feColorMatrix type="matrix" values="0 0 0 0 1 0 0 0 0 0.980556 0 0 0 0 0.416667 0 0 0 0.8 0"/>
<feBlend mode="normal" in2="BackgroundImageFix" result="effect1_dropShadow_223_5"/>
<feBlend mode="normal" in="SourceGraphic" in2="effect1_dropShadow_223_5" result="shape"/>
<feColorMatrix in="SourceAlpha" type="matrix" values="0 0 0 0 0 0 0 0 0 0 0 0 0 0 0 0 0 0 127 0" result="hardAlpha"/>
<feOffset dx="4.89189" dy="6.52252"/>
<feGaussianBlur stdDeviation="2.44595"/>
<feComposite in2="hardAlpha" operator="arithmetic" k2="-1" k3="1"/>
<feColorMatrix type="matrix" values="0 0 0 0 0 0 0 0 0 0 0 0 0 0 0 0 0 0 0.55 0"/>
<feBlend mode="normal" in2="shape" result="effect2_innerShadow_223_5"/>
</filter>
<linearGradient id="paint0_linear_223_5" x1="72.3762" y1="20.5995" x2="72.3762" y2="39.7372" gradientUnits="userSpaceOnUse">
<stop offset="0.515" stop-color="#0AF1EC"/>
<stop offset="1" stop-color="#16A6FF"/>
</linearGradient>
<linearGradient id="paint1_linear_223_5" x1="73.6708" y1="12.6133" x2="73.6708" y2="39.7372" gradientUnits="userSpaceOnUse">
<stop offset="0.535" stop-color="#0AF1EC" stop-opacity="0"/>
<stop offset="1" stop-color="#0070CB" stop-opacity="0.8"/>
</linearGradient>
<linearGradient id="paint2_linear_223_5" x1="72.3762" y1="20.5995" x2="72.3762" y2="39.7372" gradientUnits="userSpaceOnUse">
<stop offset="0.515" stop-color="#0AF1EC"/>
<stop offset="1" stop-color="#16A6FF"/>
</linearGradient>
<linearGradient id="paint3_linear_223_5" x1="73.6708" y1="12.6133" x2="73.6708" y2="39.7372" gradientUnits="userSpaceOnUse">
<stop offset="0.535" stop-color="#0AF1EC" stop-opacity="0"/>
<stop offset="1" stop-color="#0070CB" stop-opacity="0.8"/>
</linearGradient>
<linearGradient id="paint4_linear_223_5" x1="51.1332" y1="12.3554" x2="51.1332" y2="39.7353" gradientUnits="userSpaceOnUse">
<stop offset="0.515" stop-color="#0AF1EC"/>
<stop offset="1" stop-color="#16A6FF"/>
</linearGradient>
<linearGradient id="paint5_linear_223_5" x1="52.153" y1="0.929688" x2="52.153" y2="39.7353" gradientUnits="userSpaceOnUse">
<stop offset="0.535" stop-color="#0AF1EC" stop-opacity="0"/>
<stop offset="1" stop-color="#0070CB" stop-opacity="0.8"/>
</linearGradient>
<linearGradient id="paint6_linear_223_5" x1="51.1332" y1="12.3554" x2="51.1332" y2="39.7353" gradientUnits="userSpaceOnUse">
<stop offset="0.515" stop-color="#0AF1EC"/>
<stop offset="1" stop-color="#16A6FF"/>
</linearGradient>
<linearGradient id="paint7_linear_223_5" x1="52.153" y1="0.929688" x2="52.153" y2="39.7353" gradientUnits="userSpaceOnUse">
<stop offset="0.535" stop-color="#0AF1EC" stop-opacity="0"/>
<stop offset="1" stop-color="#0070CB" stop-opacity="0.8"/>
</linearGradient>
<linearGradient id="paint8_linear_223_5" x1="39.1391" y1="11.6996" x2="39.1391" y2="39.7356" gradientUnits="userSpaceOnUse">
<stop offset="0.515" stop-color="#0AF1EC"/>
<stop offset="1" stop-color="#16A6FF"/>
</linearGradient>
<linearGradient id="paint9_linear_223_5" x1="39.9468" y1="0" x2="39.9468" y2="39.7356" gradientUnits="userSpaceOnUse">
<stop offset="0.535" stop-color="#0AF1EC" stop-opacity="0"/>
<stop offset="1" stop-color="#0070CB" stop-opacity="0.8"/>
</linearGradient>
<linearGradient id="paint10_linear_223_5" x1="39.1391" y1="11.6996" x2="39.1391" y2="39.7356" gradientUnits="userSpaceOnUse">
<stop offset="0.515" stop-color="#0AF1EC"/>
<stop offset="1" stop-color="#16A6FF"/>
</linearGradient>
<linearGradient id="paint11_linear_223_5" x1="39.9468" y1="0" x2="39.9468" y2="39.7356" gradientUnits="userSpaceOnUse">
<stop offset="0.535" stop-color="#0AF1EC" stop-opacity="0"/>
<stop offset="1" stop-color="#0070CB" stop-opacity="0.8"/>
</linearGradient>
<linearGradient id="paint12_linear_223_5" x1="18.5046" y1="12.612" x2="18.5046" y2="39.7359" gradientUnits="userSpaceOnUse">
<stop offset="0.515" stop-color="#0AF1EC"/>
<stop offset="1" stop-color="#16A6FF"/>
</linearGradient>
<linearGradient id="paint13_linear_223_5" x1="20.5969" y1="1.29297" x2="20.5969" y2="39.7359" gradientUnits="userSpaceOnUse">
<stop offset="0.535" stop-color="#0AF1EC" stop-opacity="0"/>
<stop offset="1" stop-color="#0070CB" stop-opacity="0.8"/>
</linearGradient>
<linearGradient id="paint14_linear_223_5" x1="18.5046" y1="12.612" x2="18.5046" y2="39.7359" gradientUnits="userSpaceOnUse">
<stop offset="0.515" stop-color="#0AF1EC"/>
<stop offset="1" stop-color="#16A6FF"/>
</linearGradient>
<linearGradient id="paint15_linear_223_5" x1="20.5969" y1="1.29297" x2="20.5969" y2="39.7359" gradientUnits="userSpaceOnUse">
<stop offset="0.535" stop-color="#0AF1EC" stop-opacity="0"/>
<stop offset="1" stop-color="#0070CB" stop-opacity="0.8"/>
</linearGradient>
<linearGradient id="paint16_linear_223_5" x1="94.4587" y1="8.63761" x2="103.312" y2="44.3976" gradientUnits="userSpaceOnUse">
<stop stop-color="#FFF955"/>
<stop offset="1" stop-color="#FC394C"/>
</linearGradient>
<clipPath id="clip0_223_5">
<rect width="111" height="51" fill="white"/>
</clipPath>
</defs>
</svg>
